<?xml version="1.0" encoding="UTF-8"?>
<!DOCTYPE svg PUBLIC "-//W3C//DTD SVG 1.1//EN" "http://www.w3.org/Graphics/SVG/1.1/DTD/svg11.dtd">
<!-- Creator: CorelDRAW -->
<svg xmlns="http://www.w3.org/2000/svg" xml:space="preserve" width="23.3502mm" height="23.3502mm" version="1.1" style="shape-rendering:geometricPrecision; text-rendering:geometricPrecision; image-rendering:optimizeQuality; fill-rule:evenodd; clip-rule:evenodd"
viewBox="0 0 5.56 5.56"
 xmlns:xlink="http://www.w3.org/1999/xlink"
 xmlns:xodm="http://www.corel.com/coreldraw/odm/2003">
 <defs>
  <style type="text/css">
   <![CDATA[
    .fil0 {fill:#312D58}
    .fil1 {fill:#FEFEFE;fill-rule:nonzero}
   ]]>
  </style>
 </defs>
 <g id="Слой_x0020_1">
  <metadata id="CorelCorpID_0Corel-Layer"/>
  <circle class="fil0" cx="2.78" cy="2.78" r="2.78"/>
  <g id="_2553983868768">
   <polygon class="fil1" points="4.49,3.82 4.49,1.74 3.32,2.76 "/>
   <path class="fil1" d="M1.06 1.7c0,0 -0,0 -0,0l0 2.1 1.17 -1.06 -1.17 -1.05z"/>
   <path class="fil1" d="M2.99 2.8l1.39 -1.21c-0,-0 -0.01,-0 -0.01,-0l-3.16 0 1.35 1.21c0.12,0.11 0.3,0.11 0.42,0z"/>
   <path class="fil1" d="M3.12 2.94c-0.1,0.08 -0.21,0.12 -0.33,0.12 -0.12,0 -0.24,-0.04 -0.34,-0.13l-0.07 -0.06 -1.2 1.09c0,0 0.01,0 0.01,0l3.19 0 -1.19 -1.08 -0.06 0.06z"/>
  </g>
 </g>
</svg>
