<svg width="24" height="15" viewBox="0 0 24 15" fill="none" xmlns="http://www.w3.org/2000/svg">
<path d="M18.7937 14.9975C18.0154 15.0072 17.2423 14.8704 16.5148 14.5944C15.863 14.3416 15.2741 13.9506 14.7889 13.4484C14.3108 12.9352 13.9416 12.331 13.7034 11.672C13.4418 10.943 13.3122 10.1734 13.3208 9.39914C13.3152 8.63823 13.4485 7.88267 13.7142 7.16936C13.9619 6.50422 14.3431 5.8965 14.8344 5.38339C15.3272 4.87667 15.9159 4.47251 16.5664 4.19434C17.271 3.89706 18.0299 3.74918 18.7949 3.76011C19.6171 3.74259 20.4313 3.92314 21.1686 4.28645C21.8266 4.62309 22.3974 5.10752 22.8358 5.70159C23.278 6.30838 23.597 6.99554 23.7749 7.72442C23.969 8.49927 24.0383 9.29999 23.98 10.0965H16.2665C16.2359 10.8531 16.4958 11.5929 16.9934 12.1648C17.5161 12.6221 18.1995 12.8536 18.8933 12.8084C19.4382 12.8211 19.9736 12.6653 20.4261 12.3622C20.7854 12.1435 21.0611 11.8113 21.2094 11.4184H23.7941C23.5012 12.5293 22.8272 13.5028 21.8894 14.1697C20.9612 14.7423 19.8847 15.0302 18.7937 14.9975ZM18.711 5.97313C18.3079 5.95804 17.9072 6.04011 17.5427 6.21238C17.2577 6.35572 17.0048 6.55511 16.7991 6.79853C16.6181 7.01968 16.4843 7.2753 16.4057 7.54977C16.3364 7.77845 16.2918 8.01384 16.2725 8.25195H21.0486C21.0142 7.63164 20.777 7.03963 20.3734 6.56646C19.9266 6.14583 19.3239 5.9307 18.711 5.97313ZM7.16054 14.72H0V0.000350444H6.95664C7.60109 -0.00527647 8.24433 0.0568722 8.87571 0.185766C9.41049 0.289892 9.92002 0.496247 10.3762 0.793452C10.7882 1.07867 11.1188 1.46573 11.3357 1.91671C11.5752 2.45997 11.6899 3.04972 11.6716 3.64287C11.6975 4.29913 11.5231 4.94778 11.1714 5.50301C10.7865 6.03305 10.2663 6.45064 9.66493 6.7124C10.4821 6.91400 11.2004 7.40228 11.692 8.08448C12.1486 8.78646 12.3795 9.61067 12.354 10.447C12.3714 11.116 12.224 11.7789 11.9246 12.3778C11.6484 12.9089 11.2476 13.3656 10.7564 13.7092C10.2471 14.0626 9.67839 14.3219 9.07721 14.4747C8.44964 14.6391 7.8034 14.722 7.15454 14.7212L7.16054 14.72ZM3.25043 8.16104V12.2163H6.71675C7.0231 12.2196 7.32886 12.1887 7.62831 12.1242C7.90246 12.0714 8.16338 11.9648 8.39594 11.8107C8.6199 11.6639 8.80175 11.4615 8.92369 11.2234C9.0651 10.9248 9.13177 10.5964 9.118 10.2664C9.17613 9.65407 8.93826 9.05076 8.4775 8.64192C7.98039 8.30062 7.38425 8.13243 6.78152 8.16343L3.25043 8.16104ZM3.25043 2.50885V5.94801H6.53924C7.04799 5.96799 7.54955 5.82321 7.96895 5.53531C8.36431 5.20785 8.57249 4.70713 8.52548 4.19673C8.53561 3.90375 8.47299 3.61281 8.34317 3.3498C8.22592 3.13718 8.05307 2.96024 7.84301 2.83781C7.62182 2.70699 7.37752 2.61968 7.12336 2.58062C6.84657 2.52887 6.56535 2.50443 6.28376 2.50765L3.25043 2.50885ZM21.6507 2.44186H15.6656V0.988437H21.6507V2.44066V2.44186Z" fill="white"/>
</svg>
