<svg width="24" height="24" viewBox="0 0 24 24" fill="none" xmlns="http://www.w3.org/2000/svg">
<path fill-rule="evenodd" clip-rule="evenodd" d="M11.6867 23.3733C18.14 23.3733 23.3733 18.14 23.3733 11.6867C23.3733 5.23333 18.14 0 11.6867 0C5.23333 0 0 5.23333 0 11.6867C0 16.5715 2.99849 20.7572 7.25489 22.5034C6.89482 19.7146 7.54211 17.4146 8.1715 15.1783C8.40256 14.3573 8.6312 13.5449 8.80671 12.72C7.67338 10.9 8.94671 7.22667 11.34 8.13333C12.7512 8.6665 12.2252 10.2424 11.6994 11.8176C11.1273 13.5317 10.5554 15.2451 12.48 15.6133C16.3334 16.3533 17.9067 9.24 15.52 6.92667C12.06 3.59333 5.46671 6.85334 6.28005 11.6267C6.38005 12.22 7.35338 13.1533 7.35338 13.1533C7.35338 13.1533 7.30671 13.72 7.05338 14.7667C4.84004 14.3 3.91338 12.64 4.00004 10.4267C4.13338 6.8 7.41338 4.26667 10.7067 3.91333C14.8667 3.46667 18.7734 5.36667 19.32 9.1C19.9267 13.3133 17.44 17.8733 12.9867 17.5467C12.0826 17.4817 11.5714 17.1435 10.9737 16.7481C10.7737 16.6158 10.564 16.477 10.3267 16.34C9.82486 18.8493 9.21744 21.2592 7.47968 22.5929C8.78511 23.097 10.2037 23.3733 11.6867 23.3733Z" fill="white"/>
</svg>
