<svg width="22" height="25" viewBox="0 0 22 25" fill="none" xmlns="http://www.w3.org/2000/svg">
<path d="M16.8628 4.60456C16.0214 3.63803 15.5156 2.37776 15.5156 1H14.4614M16.8628 4.60456C17.6295 5.48572 18.6677 6.12656 19.8499 6.37749C20.2173 6.4576 20.6006 6.50037 21 6.50037V10.452C18.9553 10.452 17.0596 9.79521 15.5154 8.68443V16.7213C15.5154 20.7371 12.2566 24 8.25775 24C6.16506 24 4.27475 23.1028 2.94888 21.677C1.74015 20.374 1 18.6331 1 16.7213C1 12.7643 4.16295 9.53885 8.08201 9.45341M16.8628 4.60456C16.8423 4.59117 16.8219 4.57766 16.8016 4.56401M5.5741 18.6545C5.18007 18.1098 4.94577 17.4424 4.94577 16.716C4.94577 14.8844 6.43139 13.3945 8.25785 13.3945C8.59862 13.3945 8.92873 13.4531 9.23756 13.5493V9.51221C8.91806 9.46944 8.59329 9.44271 8.25785 9.44271C8.19923 9.44271 7.72743 9.47417 7.66885 9.47417M14.4558 1H11.5697L11.5645 16.8441C11.5005 18.6171 10.0415 20.043 8.25775 20.043C7.15016 20.043 6.17571 19.4929 5.56869 18.6599" stroke="white" stroke-width="2" stroke-linejoin="round"/>
</svg>
