<svg width="22" height="11" viewBox="0 0 22 11" fill="none" xmlns="http://www.w3.org/2000/svg">
<path fill-rule="evenodd" clip-rule="evenodd" d="M4.00006 0.0484735C2.71244 0.0462368 1.42443 0.0359695 0.13666 0.0359695C-0.312484 0.00575602 0.483049 0.403665 0.556523 0.649883C3.07606 6.29687 6.40138 10.3142 9.13128 10.8099C12.6352 11.0438 12.6023 11.2624 12.7705 9.20335C12.9127 8.20381 13.82 8.21022 14.4037 8.44581C15.3175 9.22402 16.2236 9.74202 16.8882 10.5297C17.1867 10.8833 17.2634 11.0158 18.0085 10.9985C19.9668 10.9531 22.1968 10.9988 21.8602 10.9769C22.7433 10.0606 19.212 7.8881 17.7404 5.93013C19.3625 4.11549 20.8697 2.49727 21.8046 0.624987C21.9943 0.285048 21.9941 0.0361902 21.905 0C20.1872 0 19.5237 0.000109213 17.9063 0.000109213C17.3818 0.000109213 17.3167 -0.0104142 17.14 0.445612C16.2514 2.73762 15.6254 3.88148 13.7982 5.32033C13.3062 5.39744 12.8169 5.3241 12.5195 4.57991C12.5195 3.24142 12.5195 1.90283 12.5195 0.564339C12.5195 -0.0155104 12.4697 0.00872628 11.8982 0.00872628C10.4454 0.00872628 9.68509 0.00872628 8.12479 0.00872628C7.8107 0.000659574 8.47862 0.18788 8.68299 1.12413C8.84364 2.43145 8.86642 2.86089 8.69799 4.35085C8.62486 5.16442 7.95812 5.30184 7.36179 4.90148C6.03385 3.7882 5.30862 1.97953 4.69683 0.577722C4.45692 0.0280128 4.59889 0.0493535 4.00006 0.0484735Z" fill="white"/>
</svg>
