<svg width="28" height="30" viewBox="0 0 28 30" fill="none" xmlns="http://www.w3.org/2000/svg">
<path d="M14 0C21.7 0 28 6.3 28 14C28 21.7 21.7 28 14 28C12 28 9.9998 27.5998 8.2998 26.7998L1 30L3.2998 23C1.29985 20.6 0 17.4 0 14C0 6.3 6.3 0 14 0ZM8.59961 7C8.09974 7.00005 7.59973 7.1001 7.2998 7.5C6.89978 7.90002 6.00013 8.80002 6 10.5996C6 12.3996 7.3 14.2004 7.5 14.4004C7.70136 14.6027 10.1011 18.4005 13.7998 20C16.6998 21.2 17.6002 21.1 18.2002 21C19.2002 20.7 20.4002 19.9996 20.7002 19.0996C21.0001 18.1998 21.0004 17.4998 20.9004 17.2998C20.8004 17.0999 20.6 17.1002 20.2002 16.9004C19.8003 16.7004 18.0009 15.8006 17.7002 15.7002C17.4002 15.6002 16.9998 15.6 16.7998 16C16.3998 16.5 16.0998 16.9998 15.7998 17.2998C15.5999 17.4997 15.2003 17.6 14.9004 17.4004C14.5004 17.2004 13.3004 16.7996 11.9004 15.5996C10.8004 14.5996 10.0998 13.4 9.7998 13C9.5999 12.6001 9.80005 12.4001 10 12.2002C10.2 12.0002 10.3996 11.7996 10.5996 11.5996C10.7996 11.3996 10.9 11.3 11 11C11.1 10.8 11.0004 10.4998 10.9004 10.2998C10.8004 10.0998 10.0998 8.29961 9.7998 7.59961C9.59985 7.00002 9.39991 7 9 7H8.59961Z" fill="white"/>
</svg>
