<svg width="29" height="30" viewBox="0 0 29 30" fill="none" xmlns="http://www.w3.org/2000/svg">
<path d="M14.4919 29.5C10.5308 29.5 10.0639 29.4791 8.51805 29.4116C7.31259 29.372 6.12274 29.1273 4.99972 28.688C3.05669 27.9329 1.52027 26.3982 0.764853 24.4576C0.341859 23.3322 0.11371 22.1431 0.0901721 20.9412C0 19.4008 0 18.8959 0 14.9711C0 11.0044 0.0209328 10.5413 0.0901721 9.00577C0.114225 7.80551 0.342366 6.61805 0.764853 5.49412C1.51945 3.55103 3.05837 2.01491 5.00455 1.26214C6.12952 0.837983 7.31899 0.609569 8.52127 0.586826C10.059 0.5 10.5646 0.5 14.4919 0.5C18.4853 0.5 18.9442 0.520903 20.4659 0.586826C21.6712 0.609766 22.8639 0.838156 23.9922 1.26214C25.9379 2.01577 27.4765 3.55159 28.2319 5.49412C28.6621 6.63443 28.8914 7.84045 28.9098 9.05883C29 10.5992 29 11.1025 29 15.0257C29 18.949 28.9775 19.4635 28.9098 20.9862C28.8859 22.1892 28.6572 23.3794 28.2335 24.5059C27.4762 26.4477 25.9375 27.9831 23.9922 28.7379C22.8655 29.1594 21.6753 29.3872 20.4723 29.4116C18.9345 29.5 18.4305 29.5 14.4919 29.5ZM14.4372 3.0453C10.4986 3.0453 10.0896 3.06459 8.55186 3.13373C7.63401 3.14587 6.72504 3.31501 5.86441 3.63379C4.59355 4.11939 3.58793 5.11947 3.09645 6.3865C2.77475 7.25525 2.60534 8.17284 2.59567 9.09902C2.51033 10.6571 2.51033 11.0655 2.51033 14.9711C2.51033 18.83 2.52482 19.2979 2.59567 20.8463C2.61008 21.7631 2.77939 22.6709 3.09645 23.5315C3.58865 24.7977 4.5941 25.797 5.86441 26.2826C6.72445 26.6035 7.6338 26.7727 8.55186 26.7827C10.1105 26.8727 10.5212 26.8727 14.4372 26.8727C18.3871 26.8727 18.7961 26.8534 20.3209 26.7827C21.2394 26.7715 22.1491 26.6023 23.01 26.2826C24.2732 25.7928 25.2722 24.7958 25.7635 23.5347C26.0845 22.6652 26.2539 21.7472 26.2642 20.8206H26.282C26.3512 19.2834 26.3512 18.8734 26.3512 14.9453C26.3512 11.0172 26.3335 10.604 26.2642 9.06847C26.2498 8.1527 26.0805 7.24594 25.7635 6.3865C25.2734 5.12362 24.2741 4.12467 23.01 3.63379C22.1493 3.3134 21.2395 3.14422 20.3209 3.13373C18.7639 3.0453 18.3565 3.0453 14.4372 3.0453ZM14.4919 22.3979C11.4808 22.3999 8.76508 20.5902 7.61127 17.8129C6.45746 15.0357 7.09285 11.8378 9.22112 9.71077C11.3494 7.58373 14.5513 6.94649 17.3336 8.09623C20.1159 9.24597 21.9305 11.9562 21.9311 14.963C21.9267 19.0649 18.5997 22.39 14.4919 22.3979ZM14.4919 10.1361C11.8241 10.1361 9.6613 12.2958 9.6613 14.9598C9.6613 17.6238 11.8241 19.7835 14.4919 19.7835C17.1598 19.7835 19.3226 17.6238 19.3226 14.9598C19.3164 12.2983 17.1573 10.1423 14.4919 10.1361ZM22.221 8.98969C21.2636 8.98614 20.4898 8.2092 20.4916 7.25317C20.4934 6.29715 21.27 5.52308 22.2274 5.52308C23.1848 5.52308 23.9615 6.29714 23.9632 7.25316C23.9637 7.7144 23.7801 8.15683 23.4532 8.48268C23.1263 8.80853 22.6829 8.99097 22.221 8.98969Z" fill="#E5097F"/>
</svg>
