<svg width="70" height="70" viewBox="0 0 70 70" fill="none" xmlns="http://www.w3.org/2000/svg">
<rect width="70" height="70" rx="35" fill="#E5097F"/>
<path d="M26.2013 48C24.0087 47.9995 22.0518 46.6242 21.3084 44.5613C20.565 42.4984 21.1947 40.1908 22.8828 38.7915C24.571 37.3923 26.9552 37.2017 28.8441 38.3151L37.3264 29.8321C35.9994 27.5773 36.5556 24.6876 38.6246 23.0866C40.6937 21.4856 43.6303 21.6726 45.4794 23.5233C47.3286 25.3739 47.5136 28.3109 45.9113 30.379C44.3089 32.4471 41.419 33.0012 39.1654 31.6725L30.6844 40.1543C31.6331 41.7631 31.6468 43.757 30.7202 45.3786C29.7936 47.0003 28.0689 48.0007 26.2013 48ZM26.2013 40.1959C24.7647 40.1959 23.6002 41.3606 23.6002 42.7973C23.6002 44.234 24.7647 45.3986 26.2013 45.3986C27.6379 45.3986 28.8025 44.234 28.8025 42.7973C28.8025 41.3606 27.6379 40.1959 26.2013 40.1959ZM41.8082 24.5877C40.3872 24.5891 39.2303 25.7308 39.21 27.1518C39.1896 28.5728 40.3133 29.7471 41.7337 29.7893C43.1541 29.8314 44.3454 28.7258 44.4094 27.3061V27.8264V27.1891C44.4094 25.7524 43.2448 24.5877 41.8082 24.5877Z" fill="black"/>
</svg>
