<svg width="158" height="44" viewBox="0 0 158 44" fill="none" xmlns="http://www.w3.org/2000/svg">
<path d="M0 43.2106L18.6404 0.78949H30.4037L39.593 22.2344H28.3699L22.0788 6.66805H26.7843L19.013 26.1212H29.9057L33.3942 34.9689H15.4783L12.1856 43.2106H0Z" fill="white"/>
<path d="M47.0774 38.4971L49.0202 43.2105H36.6466L34.8799 38.4971H47.0774Z" fill="#E5097F"/>
<path d="M71.0196 0.78949H75.3586L81.3643 18.6486H77.3695L76.1654 15.0107H70.1993L69.0087 18.6486H65L71.0196 0.78949ZM75.0544 11.5976L73.176 5.89593L71.3107 11.5976H75.0544ZM82.7533 0.78949H86.6955V14.8254H94.223V18.6486H82.7533V0.78949ZM101.354 0.78949H105.692L111.699 18.6486H107.704L106.5 15.0107H100.533L99.3424 18.6486H95.3339L101.354 0.78949ZM105.388 11.5976L103.51 5.89593L101.645 11.5976H105.388ZM113.087 14.8254L120.694 4.61253H113.087V0.78949H125.285V4.61253L117.665 14.8254H125.285V18.6486H113.087V14.8254ZM132.693 0.78949H137.032L143.038 18.6486H139.043L137.839 15.0107H131.873L130.682 18.6486H126.673L132.693 0.78949ZM136.728 11.5976L134.849 5.89593L132.984 11.5976H136.728ZM157.206 8.44924C157.206 9.37513 156.99 10.169 156.558 10.8304C156.126 11.4918 155.526 11.9636 154.759 12.2458L158 18.6486H153.687L150.711 12.5103H148.369V18.6486H144.427V0.78949H153.145C154.38 0.78949 155.367 1.15551 156.108 1.88738C156.84 2.62831 157.206 3.61598 157.206 4.85075V8.44924ZM148.369 8.97822H152.404C152.704 8.97822 152.924 8.90756 153.066 8.76663C153.198 8.6342 153.264 8.41836 153.264 8.11836V5.47275C153.264 5.17275 153.198 4.95228 153.066 4.81098C152.924 4.67892 152.704 4.61253 152.404 4.61253H148.369V8.97822ZM70.7153 34.9541C69.4805 34.9541 68.4971 34.5835 67.7649 33.8427C67.0243 33.1107 66.6539 32.1273 66.6539 30.8925V28.2732C66.6539 27.0384 67.0243 26.0507 67.7649 25.3098C68.4971 24.5781 69.4805 24.2121 70.7153 24.2121H75.504C76.739 24.2121 77.7266 24.5781 78.4674 25.3098C79.1991 26.0507 79.5653 27.0384 79.5653 28.2732V29.4902H75.6229V28.8817C75.6229 28.5732 75.5569 28.3527 75.4247 28.2203C75.2837 28.0882 75.0633 28.0218 74.7633 28.0218H71.4559C71.1562 28.0218 70.94 28.0882 70.8078 28.2203C70.6665 28.3527 70.596 28.5732 70.596 28.8817V30.3898C70.596 30.6987 70.6665 30.9192 70.8078 31.0512C70.94 31.1836 71.1562 31.2497 71.4559 31.2497H75.504C76.739 31.2497 77.7266 31.6157 78.4674 32.3477C79.1991 33.0887 79.5653 34.0765 79.5653 35.3113V38.0098C79.5653 39.2446 79.1991 40.228 78.4674 40.96C77.7266 41.7009 76.739 42.0712 75.504 42.0712H70.7153C69.4805 42.0712 68.4971 41.7009 67.7649 40.96C67.0243 40.228 66.6539 39.2446 66.6539 38.0098V36.7399H70.596V37.4013C70.596 37.7102 70.6665 37.9306 70.8078 38.0627C70.94 38.1951 71.1562 38.2611 71.4559 38.2611H74.7633C75.0633 38.2611 75.2837 38.1951 75.4247 38.0627C75.5569 37.9306 75.6229 37.7102 75.6229 37.4013V35.814C75.6229 35.5051 75.5569 35.2847 75.4247 35.1526C75.2837 35.0202 75.0633 34.9541 74.7633 34.9541H70.7153ZM86.8412 28.035H82.0655V24.2121H95.5591V28.035H90.7836V42.0712H86.8412V28.035ZM110.746 38.0098C110.746 39.2446 110.38 40.228 109.648 40.96C108.907 41.7009 107.92 42.0712 106.685 42.0712H102.134C100.899 42.0712 99.916 41.7009 99.1837 40.96C98.4431 40.228 98.0727 39.2446 98.0727 38.0098V24.2121H102.015V37.3882C102.015 37.6882 102.085 37.904 102.227 38.0364C102.359 38.1774 102.575 38.248 102.875 38.248H105.931C106.24 38.248 106.464 38.182 106.606 38.0496C106.738 37.9175 106.804 37.697 106.804 37.3882V24.2121H110.746V38.0098ZM126.476 38.0098C126.476 39.2446 126.11 40.228 125.378 40.96C124.645 41.7009 123.662 42.0712 122.428 42.0712H113.789V24.2121H122.428C123.662 24.2121 124.645 24.5781 125.378 25.3098C126.11 26.0507 126.476 27.0384 126.476 28.2732V38.0098ZM121.673 38.248C121.982 38.248 122.203 38.1774 122.335 38.0364C122.467 37.904 122.533 37.6882 122.533 37.3882V28.8952C122.533 28.5952 122.467 28.3747 122.335 28.2334C122.203 28.1013 121.982 28.035 121.673 28.035H117.731V38.248H121.673ZM129.862 24.2121H133.804V42.0712H129.862V24.2121ZM149.931 38.0098C149.931 39.2446 149.565 40.228 148.832 40.96C148.101 41.7009 147.117 42.0712 145.883 42.0712H141.252C140.018 42.0712 139.034 41.7009 138.302 40.96C137.562 40.228 137.191 39.2446 137.191 38.0098V28.2732C137.191 27.0384 137.562 26.0507 138.302 25.3098C139.034 24.5781 140.018 24.2121 141.252 24.2121H145.883C147.117 24.2121 148.101 24.5781 148.832 25.3098C149.565 26.0507 149.931 27.0384 149.931 28.2732V38.0098ZM141.133 37.3882C141.133 37.6882 141.204 37.904 141.345 38.0364C141.477 38.1774 141.694 38.248 141.993 38.248H145.129C145.437 38.248 145.658 38.1774 145.79 38.0364C145.922 37.904 145.989 37.6882 145.989 37.3882V28.8952C145.989 28.5952 145.922 28.3747 145.79 28.2334C145.658 28.1013 145.437 28.035 145.129 28.035H141.993C141.694 28.035 141.477 28.1013 141.345 28.2334C141.204 28.3747 141.133 28.5952 141.133 28.8952V37.3882Z" fill="white"/>
</svg>
