<?xml version="1.0" encoding="UTF-8"?>
<!DOCTYPE svg PUBLIC "-//W3C//DTD SVG 1.1//EN" "http://www.w3.org/Graphics/SVG/1.1/DTD/svg11.dtd">
<!-- Creator: CorelDRAW -->
<svg xmlns="http://www.w3.org/2000/svg" xml:space="preserve" width="23.3502mm" height="23.3503mm" version="1.1" style="shape-rendering:geometricPrecision; text-rendering:geometricPrecision; image-rendering:optimizeQuality; fill-rule:evenodd; clip-rule:evenodd"
viewBox="0 0 5.56 5.56"
 xmlns:xlink="http://www.w3.org/1999/xlink"
 xmlns:xodm="http://www.corel.com/coreldraw/odm/2003">
 <defs>
  <style type="text/css">
   <![CDATA[
    .fil0 {fill:#11ACD6}
    .fil1 {fill:#FEFEFE;fill-rule:nonzero}
   ]]>
  </style>
 </defs>
 <g id="Слой_x0020_1">
  <metadata id="CorelCorpID_0Corel-Layer"/>
  <circle class="fil0" cx="2.78" cy="2.78" r="2.78"/>
  <path class="fil1" d="M3.71 1.57l-2.61 0.99c-0.14,0.04 -0.14,0.18 -0.03,0.22l0.65 0.2 0.25 0.77c0.03,0.08 0.06,0.12 0.11,0.12 0.05,0 0.08,-0.02 0.13,-0.07 0.07,-0.06 0.17,-0.16 0.33,-0.32l0.68 0.5c0.12,0.07 0.22,0.03 0.25,-0.12l0.43 -2.11c0.05,-0.18 -0.06,-0.24 -0.18,-0.18zm-1.88 1.36l0 0 1.48 -0.93c0.07,-0.05 0.1,0.01 0.06,0.04l-1.23 1.11 -0.06 0.55 -0.25 -0.77z"/>
 </g>
</svg>
