<svg width="43" height="22" viewBox="0 0 43 22" fill="none" xmlns="http://www.w3.org/2000/svg">
<path fill-rule="evenodd" clip-rule="evenodd" d="M7.8183 0.096947C5.30159 0.0924736 2.78412 0.071939 0.267108 0.071939C-0.610764 0.011512 0.944142 0.807331 1.08775 1.29977C6.01229 12.5937 12.5118 20.6284 17.8475 21.6199C24.6961 22.0875 24.6317 22.5248 24.9605 18.4067C25.2385 16.4076 27.0117 16.4204 28.1527 16.8916C29.9388 18.448 31.7098 19.484 33.0088 21.0593C33.5921 21.7666 33.7421 22.0316 35.1984 21.997C39.026 21.9063 43.3846 21.9977 42.7267 21.9538C44.4527 20.1212 37.5508 15.7762 34.6745 11.8603C37.845 8.23098 40.7907 4.99454 42.618 1.24997C42.9889 0.570096 42.9884 0.0723804 42.8143 0C39.4568 0 38.1599 0.000218426 34.9987 0.000218426C33.9735 0.000218426 33.8463 -0.0208284 33.5009 0.891223C31.7641 5.47524 30.5405 7.76296 26.9693 10.6407C26.0076 10.7949 25.0513 10.6482 24.4699 9.15982C24.4699 6.48285 24.4699 3.80565 24.4699 1.12868C24.4699 -0.0310208 24.3726 0.0174526 23.2556 0.0174526C20.416 0.0174526 18.9299 0.0174526 15.8803 0.0174526C15.2664 0.00131915 16.5718 0.375761 16.9713 2.24826C17.2853 4.86291 17.3298 5.72179 17.0006 8.70171C16.8577 10.3288 15.5545 10.6037 14.389 9.80296C11.7934 7.5764 10.3759 3.95907 9.18017 1.15544C8.71125 0.0560256 8.98875 0.098707 7.8183 0.096947Z" fill="#E5097F"/>
</svg>
