<svg width="70" height="70" viewBox="0 0 70 70" fill="none" xmlns="http://www.w3.org/2000/svg">
<rect width="70" height="70" rx="35" fill="#E5097F"/>
<path d="M35 20C27.3 20 21 26.3 21 34C21 37.4 22.3 40.6 24.3 43L22 50L29.3 46.8C31 47.6 33 48 35 48C42.7 48 49 41.7 49 34C49 26.3 42.7 20 35 20Z" fill="black" stroke="black" stroke-width="2" stroke-miterlimit="10" stroke-linecap="round" stroke-linejoin="round"/>
<path d="M41.7 39.1C42 38.2 42 37.5 41.9 37.3C41.8 37.1 41.6 37.1 41.2 36.9C40.8 36.7 39 35.8 38.7 35.7C38.4 35.6 38 35.6 37.8 36C37.4 36.5 37.1 37 36.8 37.3C36.6 37.5 36.2 37.6 35.9 37.4C35.5 37.2 34.3 36.8 32.9 35.6C31.8 34.6 31.1 33.4 30.8 33C30.6 32.6 30.8 32.4 31 32.2C31.2 32 31.4 31.8 31.6 31.6C31.8 31.4 31.9 31.3 32 31C32.1 30.8 32 30.5 31.9 30.3C31.8 30.1 31.1 28.3 30.8 27.6C30.6 27 30.4 27 30 27C29.9 27 29.7 27 29.6 27C29.1 27 28.6 27.1 28.3 27.5C27.9 27.9 27 28.8 27 30.6C27 32.4 28.3 34.2 28.5 34.4C28.7 34.6 31.1 38.4 34.8 40C37.7 41.2 38.6 41.1 39.2 41C40.2 40.7 41.4 40 41.7 39.1Z" fill="#E5097F"/>
</svg>
