<?xml version="1.0" encoding="UTF-8"?>
<!DOCTYPE svg PUBLIC "-//W3C//DTD SVG 1.1//EN" "http://www.w3.org/Graphics/SVG/1.1/DTD/svg11.dtd">
<!-- Creator: CorelDRAW -->
<svg xmlns="http://www.w3.org/2000/svg" xml:space="preserve" width="23.3502mm" height="23.3502mm" version="1.1" style="shape-rendering:geometricPrecision; text-rendering:geometricPrecision; image-rendering:optimizeQuality; fill-rule:evenodd; clip-rule:evenodd"
viewBox="0 0 5.56 5.56"
 xmlns:xlink="http://www.w3.org/1999/xlink"
 xmlns:xodm="http://www.corel.com/coreldraw/odm/2003">
 <defs>
  <style type="text/css">
   <![CDATA[
    .fil1 {fill:#FEFEFE}
    .fil0 {fill:#27A94F}
   ]]>
  </style>
 </defs>
 <g id="Слой_x0020_1">
  <metadata id="CorelCorpID_0Corel-Layer"/>
  <circle class="fil0" cx="2.78" cy="2.78" r="2.78"/>
  <path class="fil1" d="M2.81 1.01c-0.95,0 -1.72,0.77 -1.72,1.72 0,0.32 0.09,0.63 0.25,0.89l-0.31 0.92 0.95 -0.3c0.25,0.14 0.53,0.21 0.83,0.21 0.95,0 1.72,-0.77 1.72,-1.72 0,-0.95 -0.77,-1.72 -1.72,-1.72zm0 3.15l0 0c-0.29,0 -0.56,-0.09 -0.79,-0.24l-0.55 0.18 0.18 -0.53c-0.17,-0.24 -0.27,-0.53 -0.27,-0.84 0,-0.79 0.64,-1.43 1.43,-1.43 0.79,0 1.43,0.64 1.43,1.43 0,0.79 -0.64,1.43 -1.43,1.43zm0.81 -1.04l0 0c-0.04,-0.02 -0.25,-0.14 -0.29,-0.15 -0.04,-0.02 -0.07,-0.02 -0.1,0.02 -0.03,0.04 -0.12,0.14 -0.15,0.17 -0.03,0.03 -0.05,0.03 -0.1,0.01 -0.04,-0.02 -0.18,-0.08 -0.34,-0.23 -0.13,-0.12 -0.21,-0.27 -0.23,-0.31 -0.02,-0.04 -0,-0.07 0.02,-0.09 0.02,-0.02 0.05,-0.05 0.07,-0.07 0.02,-0.02 0.03,-0.04 0.05,-0.07 0.02,-0.03 0.01,-0.05 -0,-0.08 -0.01,-0.02 -0.09,-0.24 -0.12,-0.33 -0.03,-0.09 -0.07,-0.08 -0.1,-0.08 -0.03,-0 -0.05,-0.01 -0.08,-0.01 -0.03,-0 -0.08,0.01 -0.12,0.05 -0.04,0.04 -0.16,0.14 -0.17,0.36 -0.01,0.22 0.14,0.43 0.16,0.46 0.02,0.03 0.29,0.5 0.72,0.69 0.44,0.19 0.44,0.13 0.52,0.13 0.08,-0 0.26,-0.1 0.3,-0.2 0.04,-0.1 0.04,-0.19 0.03,-0.21 -0.01,-0.02 -0.04,-0.03 -0.08,-0.05z"/>
 </g>
</svg>
